<?xml version="1.0" encoding="UTF-8"?>
<svg xmlns="http://www.w3.org/2000/svg" viewBox="0 0 512 512" width="512" height="512">
  <defs>
    <linearGradient id="bg" x1="0%" y1="0%" x2="100%" y2="100%">
      <stop offset="0%" stop-color="#1C1917"/>
      <stop offset="100%" stop-color="#0C0A09"/>
    </linearGradient>
    <linearGradient id="sparkGrad" x1="0%" y1="0%" x2="100%" y2="100%">
      <stop offset="0%" stop-color="#FCD34D"/>
      <stop offset="50%" stop-color="#F59E0B"/>
      <stop offset="100%" stop-color="#D97706"/>
    </linearGradient>
    <linearGradient id="innerGrad" x1="0%" y1="0%" x2="100%" y2="100%">
      <stop offset="0%" stop-color="#FEF3C7"/>
      <stop offset="100%" stop-color="#FBBF24"/>
    </linearGradient>
    <radialGradient id="bgGlow" cx="50%" cy="50%" r="50%">
      <stop offset="0%" stop-color="#F59E0B" stop-opacity="0.2"/>
      <stop offset="100%" stop-color="#F59E0B" stop-opacity="0"/>
    </radialGradient>
  </defs>
  <rect width="512" height="512" fill="url(#bg)"/>
  <rect width="512" height="512" fill="url(#bgGlow)"/>

  <g transform="translate(256, 256)">
    <circle cx="0" cy="0" r="200" fill="#F59E0B" opacity="0.08"/>
    <circle cx="0" cy="0" r="150" fill="#F59E0B" opacity="0.12"/>
    <path
      d="M0 -140 L21 -28 Q24 -10 42 -7 L140 0 L42 7 Q24 10 21 28 L0 140 L-21 28 Q-24 10 -42 7 L-140 0 L-42 -7 Q-24 -10 -21 -28 Z"
      fill="url(#sparkGrad)"
    />
    <path
      d="M0 -85 L12 -18 Q14 -6 24 -5 L85 0 L24 5 Q14 6 12 18 L0 85 L-12 18 Q-14 6 -24 5 L-85 0 L-24 -5 Q-14 -6 -12 -18 Z"
      fill="url(#innerGrad)"
      opacity="0.55"
    />
    <circle cx="118" cy="-90" r="5" fill="#FEF3C7" opacity="0.9"/>
    <circle cx="-125" cy="75" r="3" fill="#FEF3C7" opacity="0.7"/>
  </g>
</svg>
